<?xml version="1.0" encoding="UTF-8" standalone="no"?>
<svg
   version="1.0"
   width="1024.000000pt"
   height="1024.000000pt"
   viewBox="0 0 1024.000000 1024.000000"
   preserveAspectRatio="xMidYMid meet"
   id="svg5"
   sodipodi:docname="443AD777-40DB-4BB7-AB27-8BEBBA140BD3.svg"
   inkscape:version="1.4 (e7c3feb1, 2024-10-09)"
   xmlns:inkscape="http://www.inkscape.org/namespaces/inkscape"
   xmlns:sodipodi="http://sodipodi.sourceforge.net/DTD/sodipodi-0.dtd"
   xmlns="http://www.w3.org/2000/svg"
   xmlns:svg="http://www.w3.org/2000/svg">
  <defs
     id="defs5" />
  <sodipodi:namedview
     id="namedview5"
     pagecolor="#ffffff"
     bordercolor="#000000"
     borderopacity="0.25"
     inkscape:showpageshadow="2"
     inkscape:pageopacity="0.0"
     inkscape:pagecheckerboard="0"
     inkscape:deskcolor="#d1d1d1"
     inkscape:document-units="pt"
     inkscape:zoom="0.2154466"
     inkscape:cx="1250.89"
     inkscape:cy="840.11538"
     inkscape:window-width="1472"
     inkscape:window-height="743"
     inkscape:window-x="924"
     inkscape:window-y="219"
     inkscape:window-maximized="0"
     inkscape:current-layer="g5" />
  <g
     transform="translate(0.000000,1024.000000) scale(0.100000,-0.100000)"
     fill="#000000"
     stroke="none"
     id="g5">
    <path
       style="fill:#ffffff;stroke-width:3.28205"
       d="m 515.79073,1078.7159 c -4.63825,-5.1252 -5.43175,-14.7862 -5.43175,-66.1318 v -60.12986 l -41.84616,2.32011 c -23.01538,1.2761 -85.41538,5.00454 -138.66667,8.28544 -87.80989,5.41014 -97.20231,5.48697 -100.92307,0.82547 -5.04903,-6.32563 -5.35965,-19.13121 -0.53636,-22.11216 3.80321,-2.35051 23.2174,-3.94477 180.22867,-14.80018 55.05641,-3.80646 100.27329,-7.16334 100.48196,-7.45971 0.20867,-0.29637 1.37781,-19.18927 2.59808,-41.98426 l 2.21868,-41.44539 -40.44177,-1.34636 c -34.77446,-1.15771 -42.7035,-2.47867 -56.58135,-9.42641 -19.51486,-9.76982 -28.52847,-21.37085 -31.02045,-39.92514 -1.81967,-13.54857 -2.2714,-13.99568 -16.61077,-16.44098 -36.62239,-6.24521 -59.10592,-27.45097 -59.10592,-55.74685 0,-19.80009 5.38732,-30.66214 23.18066,-46.73733 24.28699,-21.94186 27.42419,-22.7799 145.84498,-38.95972 l 29.53846,-4.03584 3.71953,-64.0037 c 5.00374,-86.10182 14.24705,-120.69484 44.22674,-165.51822 34.05358,-50.91432 84.13716,-87.042 145.85669,-105.21344 38.87915,-11.44678 100.267,-12.18226 140.96627,-1.68892 90.16868,23.24787 156.91502,84.26775 185.03992,169.16448 18.7181,56.50178 21.1218,114.67207 10.4425,252.71795 -3.4911,45.1282 -7.3871,103.09743 -8.6577,128.82051 -2.1979,44.49772 -2.0088,46.76782 3.8941,46.74042 3.4123,-0.0159 26.7122,-1.50745 51.7774,-3.31465 50.9342,-3.67238 55.5412,-2.43702 53.8765,14.44681 -1.4957,15.16954 41.6705,11.0205 -414.22324,39.81417 -99.11519,6.25998 -181.06114,12.23345 -182.10207,13.27438 -1.04093,1.04094 -2.65435,29.63072 -3.58539,63.53288 -1.24641,45.386 -2.88059,63.0695 -6.19722,67.0603 -5.84396,7.0319 -11.22874,6.8574 -17.96125,-0.582 z M 701.22319,910.76211 c 179.29416,-11.61416 288.54978,-19.4922 293.54955,-21.16683 2.17479,-0.72842 4.47548,-17.19283 5.82806,-41.7071 1.2292,-22.27695 5.2843,-81.85741 9.0114,-132.401 8.5255,-115.61489 7.3327,-193.99514 -3.5198,-231.29479 C 987.44412,420.09872 943.98175,365.81512 890.89254,340.31003 847.84013,319.62681 827.70353,315.27481 774.5641,315.16869 c -39.0693,-0.078 -49.63413,1.05394 -70.5641,7.56056 -67.26715,20.91171 -124.37146,74.78668 -146.3954,138.11649 -9.61241,27.64052 -13.61779,59.12798 -15.02041,118.08022 l -1.04573,43.95161 19.31963,0.35607 c 22.99422,0.42385 30.41041,6.97584 20.40721,18.02923 -7.41721,8.1959 -5.55809,7.82782 -109.76031,21.73148 -109.90349,14.66437 -128.53063,21.81908 -128.53063,49.36894 0,12.06915 9.65933,22.07262 26.25641,27.19183 42.16457,13.00529 187.55633,4.64804 329.0477,-18.91397 30.24804,-5.0371 58.69499,-8.45131 63.21546,-7.58718 12.97739,2.48077 24.55735,18.70047 24.55735,34.39668 0,31.08099 -34.02269,62.66099 -78.37607,72.74893 -27.84545,6.33331 -76.02544,13.44676 -125.11111,18.47181 -20.75897,2.12517 -38.82866,5.55501 -40.15487,7.62191 -1.3262,2.06687 -2.43389,19.63491 -2.46153,39.04004 -0.0401,28.12471 0.88448,35.28205 4.55753,35.28205 2.53428,0 73.05736,-4.43396 156.71796,-9.85328 z M 628.51282,804.00082 c 51.57366,-6.5751 93.14783,-16.15852 106.85896,-24.63248 8.82846,-5.45628 21.14104,-23.35708 21.14104,-30.73615 0,-3.57353 -18.43374,-2.05995 -74.83349,6.14453 -75.55909,10.99155 -145.95365,17.81602 -209.88446,20.34743 l -53.33333,2.11181 v 9.25509 c 0,12.16794 11.18653,19.37401 35.38391,22.79338 27.10763,3.83062 126.84142,0.81372 174.66737,-5.28361 z"
       id="path6"
       transform="matrix(7.5,0,0,-7.5,0,10240)" />
    <path
       style="fill:#ffffff;stroke-width:1.16038"
       d="m 1006.0498,1082.7861 c -1.9147,-0.885 -4.9796,-3.2025 -6.8111,-5.15 l -3.32994,-3.5408 0.49466,-48.5275 c 0.42284,-41.48219 0.76269,-49.03333 2.34085,-52.01142 2.71943,-5.13178 5.64683,-7.33984 10.82953,-8.16859 4.0136,-0.6418 5.3878,-0.21339 10.4131,3.24632 l 5.7893,3.9857 0.9011,16.71498 c 0.4955,9.19324 0.7566,31.88211 0.5802,50.41961 -0.2847,29.9083 -0.5514,34.0562 -2.3677,36.8259 -4.2237,6.4408 -12.4614,9.1543 -18.84,6.2058 z"
       id="path7"
       transform="matrix(7.5,0,0,-7.5,0,10240)" />
    <path
       style="fill:#ffffff;stroke-width:1.16038"
       d="m 825.87463,549.7302 c -10.02869,-5.41459 -15.29798,-14.10775 -15.29798,-25.23828 0,-8.8629 2.69287,-14.82461 9.53294,-21.10482 11.866,-10.89477 29.55684,-7.23206 37.1214,7.68561 9.15011,18.04444 -3.10393,40.68815 -22.0191,40.68815 -3.10421,0 -7.24346,-0.9002 -9.33726,-2.03066 z"
       id="path9"
       transform="matrix(7.5,0,0,-7.5,0,10240)" />
    <path
       style="fill:#ffffff;stroke-width:1.16038"
       d="m 644.0111,551.83621 c -8.83259,-2.15029 -15.46606,-8.26361 -18.65108,-17.1886 -4.55808,-12.77259 1.46428,-27.76976 13.67324,-34.04975 8.07456,-4.15336 22.27587,-1.94232 27.85103,4.33621 7.2579,8.17355 8.96221,23.06693 3.83815,33.54014 -3.44855,7.04857 -7.57817,10.49852 -15.37599,12.84532 -5.80118,1.74589 -6.20968,1.76452 -11.33535,0.51668 z"
       id="path10"
       transform="matrix(7.5,0,0,-7.5,0,10240)" />
    <path
       style="fill:#ffffff;stroke-width:1.16038"
       d="m 629.50635,612.57332 c -33.64138,-8.93656 -58.84898,-38.5711 -63.87703,-75.09505 -5.57967,-40.53092 18.73339,-81.42194 58.33181,-98.1056 6.92416,-2.91729 8.26489,-3.06853 27.01225,-3.04693 18.44399,0.0212 20.23505,0.21911 27.54923,3.04346 12.38058,4.78074 20.45079,10.14009 30.70582,20.39146 7.85822,7.85541 10.45073,11.42907 14.73144,20.30666 6.55383,13.5917 8.69113,21.70117 9.56764,36.30194 1.19103,19.84034 -4.35187,41.21403 -14.89579,57.43883 -2.69588,4.14836 -9.19025,11.80736 -14.43194,17.01999 -15.9835,15.89488 -35.00858,23.61986 -57.86792,23.49681 -5.74388,-0.0309 -13.31536,-0.81913 -16.82551,-1.75157 z m 30.04018,-30.71282 c 19.11825,-4.40747 34.50681,-20.39508 40.19144,-41.75606 2.20532,-8.28686 2.17256,-25.54057 -0.0648,-34.13038 -4.14452,-15.91188 -15.95804,-30.30464 -29.22329,-35.60361 -5.49587,-2.19539 -8.92037,-2.68638 -18.89631,-2.70924 -11.6999,-0.0268 -12.54399,0.14397 -21.2448,4.29853 -25.21704,12.04092 -36.19883,36.6469 -30.90826,69.25356 3.05454,18.82563 17.67943,35.11169 35.93587,40.01764 7.49998,2.01543 17.11424,2.26543 24.21015,0.62956 z"
       id="path11"
       transform="matrix(7.5,0,0,-7.5,0,10240)" />
    <path
       style="fill:#ffffff;stroke-width:0.820513"
       d="M 819.55622,614.63779 C 799.69956,610.83943 783.999,601.2727 769.9528,584.41325 c -14.30296,-17.16764 -22.00437,-43.34429 -19.656,-66.80966 2.26564,-22.63868 11.47517,-42.70241 26.66293,-58.08743 8.23906,-8.34605 14.93314,-13.45587 23.6612,-18.06136 17.14787,-9.04832 35.96167,-10.62992 58.04574,-4.87965 48.97291,12.75161 74.68821,69.56236 54.48934,120.37891 -5.44574,13.70046 -11.4111,22.31765 -23.43309,33.85002 -12.68253,12.16601 -23.81234,18.5312 -39.26138,22.45377 -8.96488,2.27622 -22.95448,2.90086 -30.90532,1.37994 z m 21.80648,-32.52931 c 11.87118,-1.92614 19.52226,-6.12341 29.69105,-16.28805 7.09753,-7.09464 9.40071,-10.4681 12.56075,-18.39772 3.02067,-7.57987 4.59063,-16.36339 4.59063,-25.68333 0,-17.34535 -4.93433,-30.03972 -15.92024,-40.95733 -11.11459,-11.04551 -21.19457,-15.15285 -37.12127,-15.12601 -8.25009,0.0139 -9.41063,0.22238 -15.73098,2.8258 -10.05317,4.14099 -13.85607,6.60458 -20.40632,13.21958 -4.66286,4.70895 -6.66285,7.55768 -9.55787,13.61399 -5.22921,10.93936 -6.65837,17.62133 -6.6397,31.04357 0.0124,8.92219 0.36823,12.31928 1.82918,17.46359 8.0092,28.20192 29.48559,42.70235 56.70477,38.28591 z"
       id="path12"
       transform="matrix(7.5,0,0,-7.5,0,10240)" />
  </g>
</svg>
